# xmcd
#
# Track frame offsets: 
#        150
#        15577
#        29420
#        43347
#        56490
#        71267
#        87737
#        101345
#        113907
#        129632
#        142437
#        156187
#        170800
#        185007
#        198612
#        213300
#
# Disc length: 3034 seconds
#
# Revision: 4
# Processed by: cddbd v1.5.2PL0 Copyright (c) Steve Scherf et al.
# Submitted via: ExactAudioCopy v0.95b4
#
DISCID=f60bd810
DTITLE=Mastruz Com Leite - Flor Do Mamulengo
DYEAR=1996
DGENRE=Forró
TTITLE0=Princípio, meio e fim
TTITLE1=Se lembra coração
TTITLE2=Te procuro
TTITLE3=Meu "Bê" a "Bá"
TTITLE4=Jogo aberto
TTITLE5=Meeiro
TTITLE6=Somos Mastruz com Leite
TTITLE7=Rala coxa
TTITLE8=Flor do mamulengo
TTITLE9=Passeando pelo sertão
TTITLE10=Homem pequeno
TTITLE11=Trânsito engarrafado
TTITLE12=Espaço sideral
TTITLE13=Vaca encaretada
TTITLE14=Sou canto sertão
TTITLE15=Trio de dois
EXTD=
EXTT0=
EXTT1=
EXTT2=
EXTT3=
EXTT4=
EXTT5=
EXTT6=
EXTT7=
EXTT8=
EXTT9=
EXTT10=
EXTT11=
EXTT12=
EXTT13=
EXTT14=
EXTT15=
PLAYORDER=
